<svg xmlns="http://www.w3.org/2000/svg" viewBox="0 0 48 32" width="48" height="32">
  <rect width="48" height="32" rx="4" fill="#1A1F71"/>
  <path d="M19.5 21h-2.7l1.7-10.5h2.7L19.5 21zm-5.3 0h-2.8l-2.6-8.3c-.1-.5-.4-.7-.8-.9-1-.4-2-.7-3-1l.1-.3h4.5c.6 0 1.1.4 1.2 1l1.1 5.8 2.7-6.8h2.8L14.2 21zm16.4-6.8c0-2.7-3.7-2.8-3.7-4 0-.4.4-.8 1.1-.9.4 0 1.4 0 2.6.6l.5-2.2a7.2 7.2 0 00-2.5-.5c-2.6 0-4.5 1.4-4.5 3.4 0 1.5 1.3 2.3 2.4 2.8 1 .5 1.4.8 1.4 1.3 0 .7-.8 1-1.6 1-.7 0-2.2-.3-3.3-.9l-.5 2.3c.8.4 2.1.6 3.5.6 2.8 0 4.6-1.4 4.6-3.5zm6.9 6.8h2.5l-2.2-10.5H30c-.5 0-1 .3-1.2.8L25 21h2.8l.6-1.6h3.4l.3 1.6zm-3-3.8l1.4-3.9.8 3.9h-2.2z" fill="#fff"/>
</svg>
